<svg xmlns="http://www.w3.org/2000/svg" viewBox="0 0 300 300" width="160" height="160">
  <defs>
    <linearGradient id="g1" x1="0%" y1="0%" x2="100%" y2="100%">
      <stop offset="0%" stop-color="#0EA5E9" />
      <stop offset="100%" stop-color="#22C55E" />
    </linearGradient>
    <filter id="gl">
      <feGaussianBlur stdDeviation="3" result="b" />
      <feMerge>
        <feMergeNode in="b" />
        <feMergeNode in="SourceGraphic" />
      </feMerge>
    </filter>
  </defs>
  <path d="M 70 40 L 70 185 Q 70 260 150 260 Q 230 260 230 185 L 230 40 L 185 40 L 185 185 Q 185 215 150 215 Q 115 215 115 185 L 115 40 Z" fill="url(#g1)" />
  <circle cx="70" cy="105" r="4" fill="#0EA5E9" filter="url(#gl)" />
  <line x1="70" y1="105" x2="40" y2="105" stroke="#0EA5E9" stroke-width="1.5" opacity="0.8" />
  <circle cx="40" cy="105" r="3" fill="#0EA5E9" opacity="0.7" />
  <circle cx="230" cy="105" r="4" fill="#22C55E" filter="url(#gl)" />
  <line x1="230" y1="105" x2="260" y2="105" stroke="#22C55E" stroke-width="1.5" opacity="0.8" />
  <circle cx="260" cy="105" r="3" fill="#22C55E" opacity="0.7" />
  <circle cx="70" cy="145" r="3" fill="#fff" opacity="0.4" />
  <circle cx="230" cy="145" r="3" fill="#fff" opacity="0.4" />
  <text x="150" y="286" font-family="'Courier New',monospace" font-size="22" font-weight="900" letter-spacing="5" text-anchor="middle" fill="url(#g1)">ULERICH</text>
  <text x="150" y="300" font-family="'Courier New',monospace" font-size="9" letter-spacing="10" text-anchor="middle" fill="#8B949E">LABS</text>
</svg>
